<svg width="138" height="142" viewBox="0 0 138 142" fill="none" xmlns="http://www.w3.org/2000/svg">
<path d="M133.602 66.2235L133.607 66.2183L132.861 49.3375L133.576 48.6387L133.576 48.6385C133.575 48.6381 133.575 48.6378 133.575 48.6374L101.105 15.4007L101.105 15.4004L90.6068 4.64558C85.862 -0.215194 78.1199 -0.215193 73.3752 4.64558L25.926 53.1746H13.1579C6.43688 53.1746 1 58.7796 1 65.6054V127.839C1 134.667 6.4384 140.27 13.1842 140.27H107.512C114.257 140.27 119.696 134.667 119.696 127.839V80.4433L133.602 66.2235ZM80.0554 11.4204L80.0556 11.4202C81.114 10.3359 82.8416 10.3359 83.9 11.4202L91.0796 18.8001L57.5001 53.1746H39.2726L80.0554 11.4204ZM126.883 59.4078L126.876 59.4144L126.87 59.4212L119.669 66.7974V65.6054C119.669 58.7781 114.231 53.1746 107.485 53.1746H70.821L97.7518 25.6101L126.896 55.4406C127.713 56.2778 127.815 57.1066 127.684 57.8036C127.541 58.5638 127.111 59.1825 126.883 59.4078ZM107.512 130.65H13.1842C11.7017 130.65 10.4649 129.418 10.4649 127.839V85.6295H110.231V127.839C110.231 129.418 108.994 130.65 107.512 130.65ZM110.231 76.0091H10.4649V65.6054C10.4649 64.0269 11.7017 62.7951 13.1842 62.7951H107.512C108.994 62.7951 110.231 64.0269 110.231 65.6054V76.0091Z" fill="#FDFFFA" stroke="#FDFFFA" stroke-width="2"/>
</svg>
