<svg width="134" height="138" viewBox="0 0 134 138" fill="none" xmlns="http://www.w3.org/2000/svg">
<path d="M128.116 97.0672C126.37 95.4859 124.278 94.3367 122.007 93.7123C119.737 93.0878 117.351 93.0056 115.043 93.4721L82.6869 99.0282C82.6464 94.9698 81.0015 91.0924 78.1114 88.2429L54.9067 65.3651H6.53652C4.80292 65.3651 3.14034 66.0538 1.9145 67.2796C0.688666 68.5054 0 70.168 0 71.9016C0 73.6352 0.688666 75.2978 1.9145 76.5236C3.14034 77.7495 4.80292 78.4381 6.53652 78.4381H49.6775L68.9602 97.7209C69.42 98.2064 69.6762 98.8497 69.6762 99.5184C69.6762 100.187 69.42 100.83 68.9602 101.316C68.421 101.798 67.7228 102.065 66.9993 102.065C66.2758 102.065 65.5776 101.798 65.0383 101.316L53.5994 89.877C52.3411 88.7516 50.7121 88.1293 49.0239 88.1293C47.3356 88.1293 45.7066 88.7516 44.4483 89.877C43.2296 91.1538 42.5496 92.851 42.5496 94.616C42.5496 96.3811 43.2296 98.0782 44.4483 99.355L55.8872 110.467C57.3129 111.969 59.0397 113.153 60.9546 113.942C62.8695 114.73 64.9293 115.105 66.9993 115.043C69.0002 115.034 70.9866 114.703 72.8821 114.062L117.33 106.218C117.788 106.135 118.257 106.15 118.708 106.263C119.159 106.376 119.581 106.583 119.945 106.872C120.534 107.494 120.882 108.305 120.926 109.16C120.941 109.924 120.688 110.67 120.21 111.267C119.732 111.864 119.06 112.275 118.311 112.428L57.5213 123.54L21.8973 94.4526H6.53652C4.80292 94.4526 3.14034 95.1413 1.9145 96.3671C0.688666 97.5929 0 99.2555 0 100.989C0 102.723 0.688666 104.385 1.9145 105.611C3.14034 106.837 4.80292 107.526 6.53652 107.526H17.3218L53.5994 137.267L120.599 125.174C124.379 124.549 127.809 122.59 130.268 119.651C132.726 116.713 134.05 112.991 133.999 109.16C134.024 106.826 133.506 104.518 132.485 102.419C131.463 100.32 129.968 98.4878 128.116 97.0672Z" fill="#FDFFFA"/>
<path d="M102.296 59.1555C97.484 59.2504 92.7746 57.7571 88.8963 54.9067C88.1701 54.4238 87.3545 54.0911 86.4977 53.9283C85.6409 53.7654 84.7602 53.7756 83.9074 53.9584C83.0546 54.1411 82.247 54.4926 81.5322 54.9923C80.8174 55.4919 80.2098 56.1296 79.7452 56.8677C79.2298 57.4807 78.8451 58.1924 78.6144 58.9593C78.3838 59.7262 78.3122 60.5322 78.404 61.3277C78.4958 62.1233 78.7491 62.8917 79.1483 63.586C79.5475 64.2802 80.0842 64.8856 80.7257 65.3652C84.9311 68.3166 89.7252 70.3234 94.7792 71.248V78.4382C94.7792 80.1718 95.4678 81.8344 96.6937 83.0602C97.9195 84.286 99.5821 84.9747 101.316 84.9747C103.049 84.9747 104.712 84.286 105.938 83.0602C107.164 81.8344 107.852 80.1718 107.852 78.4382V71.248C111.437 70.7193 114.82 69.2537 117.657 66.9993C119.706 65.4952 121.367 63.5252 122.504 61.252C123.64 58.9787 124.219 56.4677 124.193 53.9263C124.193 41.8337 113.081 37.9118 103.603 35.9508C94.1255 33.9899 92.1646 31.7021 92.1646 30.068C92.1646 28.4338 92.8182 28.107 93.7987 27.1265C95.6018 26.1572 97.6376 25.7048 99.6815 25.8192C103.479 25.7863 107.212 26.8043 110.467 28.7607C111.128 29.3006 111.9 29.69 112.727 29.9018C113.554 30.1136 114.418 30.1428 115.257 29.9873C116.097 29.8318 116.893 29.4954 117.589 29.0014C118.286 28.5073 118.867 27.8676 119.291 27.1265C119.851 26.4582 120.264 25.6794 120.504 24.8408C120.743 24.0022 120.803 23.1226 120.679 22.2593C120.556 21.396 120.252 20.5683 119.788 19.8302C119.323 19.0921 118.709 18.4601 117.984 17.9754C114.876 16.0571 111.442 14.7277 107.852 14.0535V6.53652C107.852 4.80292 107.164 3.14034 105.938 1.9145C104.712 0.688666 103.049 0 101.316 0C99.5821 0 97.9195 0.688666 96.6937 1.9145C95.4678 3.14034 94.7792 4.80292 94.7792 6.53652V13.7267C84.9744 15.3608 78.4379 21.8973 78.4379 30.7216C78.4379 39.5459 89.2231 46.7361 99.6815 48.697C110.14 50.658 110.467 52.9458 110.467 54.5799C110.467 56.214 106.872 59.1555 102.296 59.1555Z" fill="#FDFFFA"/>
</svg>
