<svg width="149" height="32" viewBox="0 0 149 32" fill="none" xmlns="http://www.w3.org/2000/svg">
<mask id="path-1-outside-1_715_202" maskUnits="userSpaceOnUse" x="0" y="0" width="149" height="32" fill="black">
<rect fill="white" width="149" height="32"/>
<path d="M10.76 30.9084C9.13333 30.9084 7.66 30.6418 6.34 30.1084C5.02 29.5618 3.9 28.8217 2.98 27.8884C2.30837 27.1872 1.77209 26.4164 1.37117 25.5761C1.13654 25.0843 1.40973 24.5185 1.92144 24.3313L3.40746 23.7876C3.89938 23.6077 4.44024 23.8427 4.71348 24.2896C5.24602 25.1606 5.9482 25.8935 6.82 26.4884C7.96667 27.2484 9.30667 27.6284 10.84 27.6284C12.52 27.6284 13.86 27.2284 14.86 26.4284C15.86 25.6151 16.36 24.4417 16.36 22.9084C16.36 21.8284 16.06 20.9217 15.46 20.1884C14.86 19.4551 14.08 18.8417 13.12 18.3484C12.16 17.8417 11.1333 17.3884 10.04 16.9884C9.06667 16.6284 8.09333 16.2284 7.12 15.7884C6.14667 15.3484 5.26 14.8284 4.46 14.2284C3.67333 13.6151 3.04 12.8751 2.56 12.0084C2.08 11.1284 1.84 10.0818 1.84 8.86842C1.84 7.61508 2.18 6.46842 2.86 5.42842C3.50793 4.42477 1.99508 -1.47542 5.27657 2.27822C5.58765 2.63406 6.10064 2.75113 6.54281 2.58417C7.66527 2.16034 8.96434 1.94842 10.44 1.94842C11.6321 1.94842 12.7074 2.09115 13.6659 2.3766C14.0749 2.49839 14.5272 2.38216 14.8186 2.07041C17.7661 -1.08322 16.4345 3.66485 17.12 4.38842C17.6169 4.89438 18.0098 5.44932 18.2985 6.05323C18.5298 6.53686 18.2391 7.08371 17.7312 7.25513L16.3187 7.73186C15.8231 7.89913 15.2911 7.64547 14.9741 7.22938C14.6314 6.77962 14.1734 6.3793 13.6 6.02842C12.72 5.46842 11.5867 5.18842 10.2 5.18842C8.72 5.18842 7.55333 5.51508 6.7 6.16842C5.86 6.82175 5.44 7.72175 5.44 8.86842C5.44 9.73508 5.72 10.4618 6.28 11.0484C6.85333 11.6217 7.6 12.1217 8.52 12.5484C9.44 12.9751 10.4267 13.3884 11.48 13.7884C12.4667 14.1617 13.4533 14.5884 14.44 15.0684C15.44 15.5351 16.3533 16.1084 17.18 16.7884C18.02 17.4684 18.6933 18.3018 19.2 19.2884C19.7067 20.2617 19.96 21.4417 19.96 22.8284C19.96 24.5484 19.56 26.0084 18.76 27.2084C17.96 28.4084 16.8667 29.3284 15.48 29.9684C14.0933 30.5951 12.52 30.9084 10.76 30.9084Z"/>
<path d="M29.1453 30.4284C28.593 30.4284 28.1453 29.9807 28.1453 29.4284V3.78928C28.1453 3.3987 28.3727 3.04386 28.7276 2.88071L30.2076 2.20025C30.8701 1.89565 31.6253 2.37966 31.6253 3.10882V9.0989C31.6253 10.0436 33.0352 10.5806 33.8853 10.1684C34.7786 9.72842 35.7853 9.50842 36.9053 9.50842C38.6786 9.50842 40.0986 9.87508 41.1653 10.6084C42.2453 11.3418 43.0253 12.3951 43.5053 13.7684C43.9853 15.1284 44.2253 16.7618 44.2253 18.6684V29.4284C44.2253 29.9807 43.7776 30.4284 43.2253 30.4284H41.7453C41.193 30.4284 40.7453 29.9807 40.7453 29.4284V18.0684C40.7453 16.4684 40.3853 15.1751 39.6653 14.1884C38.9586 13.2017 37.852 12.7084 36.3453 12.7084C34.7853 12.7084 33.6053 13.1551 32.8053 14.0484C32.0186 14.9284 31.6253 16.2418 31.6253 17.9884V29.4284C31.6253 29.9807 31.1776 30.4284 30.6253 30.4284H29.1453Z"/>
<path d="M61.3503 30.9084C59.4837 30.9084 57.8703 30.4484 56.5103 29.5284C55.1503 28.6084 54.1036 27.3417 53.3703 25.7284C52.637 24.1151 52.2703 22.2684 52.2703 20.1884C52.2703 17.9351 52.6503 16.0151 53.4103 14.4284C54.1703 12.8284 55.2303 11.6084 56.5903 10.7684C57.9503 9.92842 59.537 9.50842 61.3503 9.50842C62.8836 9.50842 64.2903 9.85508 65.5703 10.5484C66.8503 11.2284 67.8703 12.2884 68.6303 13.7284C69.4036 15.1551 69.7903 16.9884 69.7903 19.2284C69.7903 19.5484 69.777 19.9218 69.7503 20.3484C69.7464 20.4703 69.7413 20.5933 69.735 20.7175C69.709 21.2341 69.2743 21.6284 68.7571 21.6284H56.9436C56.349 21.6284 55.8805 22.146 56.0023 22.7279C56.1684 23.5217 56.4178 24.2418 56.7503 24.8884C57.2303 25.8217 57.8636 26.5551 58.6503 27.0884C59.437 27.6084 60.3636 27.8684 61.4303 27.8684C62.297 27.8684 63.097 27.7151 63.8303 27.4084C64.2766 27.2251 64.7038 26.9823 65.112 26.6799C65.5733 26.3382 66.2324 26.3484 66.6152 26.7762L67.3195 27.5634C67.6734 27.959 67.6598 28.5671 67.2436 28.8964C66.6268 29.3844 65.9157 29.8084 65.1103 30.1684C63.9903 30.6618 62.737 30.9084 61.3503 30.9084ZM55.8889 17.5411C55.8084 18.1076 56.2701 18.5884 56.8422 18.5884H65.2703C65.8226 18.5884 66.2774 18.1393 66.2193 17.5901C66.1387 16.8268 65.9623 16.1263 65.6903 15.4884C65.317 14.5684 64.7636 13.8484 64.0303 13.3284C63.297 12.8084 62.4036 12.5484 61.3503 12.5484C59.8703 12.5484 58.597 13.0284 57.5303 13.9884C56.6602 14.7814 56.1131 15.9657 55.8889 17.5411Z"/>
<path d="M78.3937 30.4284C77.8415 30.4284 77.3937 29.9807 77.3937 29.4284V3.82263C77.3937 3.43547 77.6172 3.0831 77.9674 2.91805L79.4474 2.22058C80.1107 1.90799 80.8737 2.39191 80.8737 3.12516V29.4284C80.8737 29.9807 80.426 30.4284 79.8737 30.4284H78.3937Z"/>
<path d="M97.4625 30.4284C96.9102 30.4284 96.4625 29.9807 96.4625 29.4284V6.74842C96.4625 6.19613 96.0148 5.74842 95.4625 5.74842H89.6625C89.1102 5.74842 88.6625 5.3007 88.6625 4.74842V3.42842C88.6625 2.87613 89.1102 2.42842 89.6625 2.42842H106.743C107.295 2.42842 107.743 2.87613 107.743 3.42842V4.74842C107.743 5.3007 107.295 5.74842 106.743 5.74842H100.943C100.39 5.74842 99.9425 6.19613 99.9425 6.74842V29.4284C99.9425 29.9807 99.4948 30.4284 98.9425 30.4284H97.4625Z"/>
<path d="M119.669 30.9084C117.802 30.9084 116.189 30.4484 114.829 29.5284C113.469 28.6084 112.422 27.3417 111.689 25.7284C110.956 24.1151 110.589 22.2684 110.589 20.1884C110.589 17.9351 110.969 16.0151 111.729 14.4284C112.489 12.8284 113.549 11.6084 114.909 10.7684C116.269 9.92842 117.856 9.50842 119.669 9.50842C121.202 9.50842 122.609 9.85508 123.889 10.5484C125.169 11.2284 126.189 12.2884 126.949 13.7284C127.722 15.1551 128.109 16.9884 128.109 19.2284C128.109 19.5484 128.096 19.9218 128.069 20.3484C128.065 20.4703 128.06 20.5933 128.054 20.7175C128.028 21.2341 127.593 21.6284 127.076 21.6284H115.262C114.668 21.6284 114.199 22.146 114.321 22.7279C114.487 23.5217 114.737 24.2418 115.069 24.8884C115.549 25.8217 116.182 26.5551 116.969 27.0884C117.756 27.6084 118.682 27.8684 119.749 27.8684C120.616 27.8684 121.416 27.7151 122.149 27.4084C122.595 27.2251 123.023 26.9823 123.431 26.6799C123.892 26.3382 124.551 26.3484 124.934 26.7762L125.638 27.5634C125.992 27.959 125.979 28.5671 125.562 28.8964C124.946 29.3844 124.234 29.8084 123.429 30.1684C122.309 30.6618 121.056 30.9084 119.669 30.9084ZM114.208 17.5411C114.127 18.1076 114.589 18.5884 115.161 18.5884H123.589C124.141 18.5884 124.596 18.1393 124.538 17.5901C124.457 16.8268 124.281 16.1263 124.009 15.4884C123.636 14.5684 123.082 13.8484 122.349 13.3284C121.616 12.8084 120.722 12.5484 119.669 12.5484C118.189 12.5484 116.916 13.0284 115.849 13.9884C114.979 14.7814 114.432 15.9657 114.208 17.5411Z"/>
<path d="M136.903 30.4284C136.351 30.4284 135.903 29.9807 135.903 29.4284V10.9884C135.903 10.4361 136.351 9.98842 136.903 9.98842H138.911C139.172 9.98842 139.383 10.2 139.383 10.461C139.383 10.9705 140.253 11.2095 140.619 10.8556C140.832 10.6505 141.06 10.4681 141.303 10.3084C142.13 9.77508 143.103 9.50842 144.223 9.50842C145.245 9.50842 146.14 9.74371 146.908 10.2143C147.214 10.402 147.348 10.7677 147.292 11.1227L147.104 12.3103C146.993 13.0123 146.168 13.3586 145.483 13.1684C145.016 13.0218 144.503 12.9484 143.943 12.9484C143.023 12.9484 142.223 13.1951 141.543 13.6884C140.863 14.1818 140.33 14.8751 139.943 15.7684C139.57 16.6617 139.383 17.7084 139.383 18.9084V29.4284C139.383 29.9807 138.935 30.4284 138.383 30.4284H136.903Z"/>
</mask>
<path d="M10.76 30.9084C9.13333 30.9084 7.66 30.6418 6.34 30.1084C5.02 29.5618 3.9 28.8217 2.98 27.8884C2.30837 27.1872 1.77209 26.4164 1.37117 25.5761C1.13654 25.0843 1.40973 24.5185 1.92144 24.3313L3.40746 23.7876C3.89938 23.6077 4.44024 23.8427 4.71348 24.2896C5.24602 25.1606 5.9482 25.8935 6.82 26.4884C7.96667 27.2484 9.30667 27.6284 10.84 27.6284C12.52 27.6284 13.86 27.2284 14.86 26.4284C15.86 25.6151 16.36 24.4417 16.36 22.9084C16.36 21.8284 16.06 20.9217 15.46 20.1884C14.86 19.4551 14.08 18.8417 13.12 18.3484C12.16 17.8417 11.1333 17.3884 10.04 16.9884C9.06667 16.6284 8.09333 16.2284 7.12 15.7884C6.14667 15.3484 5.26 14.8284 4.46 14.2284C3.67333 13.6151 3.04 12.8751 2.56 12.0084C2.08 11.1284 1.84 10.0818 1.84 8.86842C1.84 7.61508 2.18 6.46842 2.86 5.42842C3.50793 4.42477 1.99508 -1.47542 5.27657 2.27822C5.58765 2.63406 6.10064 2.75113 6.54281 2.58417C7.66527 2.16034 8.96434 1.94842 10.44 1.94842C11.6321 1.94842 12.7074 2.09115 13.6659 2.3766C14.0749 2.49839 14.5272 2.38216 14.8186 2.07041C17.7661 -1.08322 16.4345 3.66485 17.12 4.38842C17.6169 4.89438 18.0098 5.44932 18.2985 6.05323C18.5298 6.53686 18.2391 7.08371 17.7312 7.25513L16.3187 7.73186C15.8231 7.89913 15.2911 7.64547 14.9741 7.22938C14.6314 6.77962 14.1734 6.3793 13.6 6.02842C12.72 5.46842 11.5867 5.18842 10.2 5.18842C8.72 5.18842 7.55333 5.51508 6.7 6.16842C5.86 6.82175 5.44 7.72175 5.44 8.86842C5.44 9.73508 5.72 10.4618 6.28 11.0484C6.85333 11.6217 7.6 12.1217 8.52 12.5484C9.44 12.9751 10.4267 13.3884 11.48 13.7884C12.4667 14.1617 13.4533 14.5884 14.44 15.0684C15.44 15.5351 16.3533 16.1084 17.18 16.7884C18.02 17.4684 18.6933 18.3018 19.2 19.2884C19.7067 20.2617 19.96 21.4417 19.96 22.8284C19.96 24.5484 19.56 26.0084 18.76 27.2084C17.96 28.4084 16.8667 29.3284 15.48 29.9684C14.0933 30.5951 12.52 30.9084 10.76 30.9084Z" fill="#3267A5"/>
<path d="M29.1453 30.4284C28.593 30.4284 28.1453 29.9807 28.1453 29.4284V3.78928C28.1453 3.3987 28.3727 3.04386 28.7276 2.88071L30.2076 2.20025C30.8701 1.89565 31.6253 2.37966 31.6253 3.10882V9.0989C31.6253 10.0436 33.0352 10.5806 33.8853 10.1684C34.7786 9.72842 35.7853 9.50842 36.9053 9.50842C38.6786 9.50842 40.0986 9.87508 41.1653 10.6084C42.2453 11.3418 43.0253 12.3951 43.5053 13.7684C43.9853 15.1284 44.2253 16.7618 44.2253 18.6684V29.4284C44.2253 29.9807 43.7776 30.4284 43.2253 30.4284H41.7453C41.193 30.4284 40.7453 29.9807 40.7453 29.4284V18.0684C40.7453 16.4684 40.3853 15.1751 39.6653 14.1884C38.9586 13.2017 37.852 12.7084 36.3453 12.7084C34.7853 12.7084 33.6053 13.1551 32.8053 14.0484C32.0186 14.9284 31.6253 16.2418 31.6253 17.9884V29.4284C31.6253 29.9807 31.1776 30.4284 30.6253 30.4284H29.1453Z" fill="#3267A5"/>
<path d="M61.3503 30.9084C59.4837 30.9084 57.8703 30.4484 56.5103 29.5284C55.1503 28.6084 54.1036 27.3417 53.3703 25.7284C52.637 24.1151 52.2703 22.2684 52.2703 20.1884C52.2703 17.9351 52.6503 16.0151 53.4103 14.4284C54.1703 12.8284 55.2303 11.6084 56.5903 10.7684C57.9503 9.92842 59.537 9.50842 61.3503 9.50842C62.8836 9.50842 64.2903 9.85508 65.5703 10.5484C66.8503 11.2284 67.8703 12.2884 68.6303 13.7284C69.4036 15.1551 69.7903 16.9884 69.7903 19.2284C69.7903 19.5484 69.777 19.9218 69.7503 20.3484C69.7464 20.4703 69.7413 20.5933 69.735 20.7175C69.709 21.2341 69.2743 21.6284 68.7571 21.6284H56.9436C56.349 21.6284 55.8805 22.146 56.0023 22.7279C56.1684 23.5217 56.4178 24.2418 56.7503 24.8884C57.2303 25.8217 57.8636 26.5551 58.6503 27.0884C59.437 27.6084 60.3636 27.8684 61.4303 27.8684C62.297 27.8684 63.097 27.7151 63.8303 27.4084C64.2766 27.2251 64.7038 26.9823 65.112 26.6799C65.5733 26.3382 66.2324 26.3484 66.6152 26.7762L67.3195 27.5634C67.6734 27.959 67.6598 28.5671 67.2436 28.8964C66.6268 29.3844 65.9157 29.8084 65.1103 30.1684C63.9903 30.6618 62.737 30.9084 61.3503 30.9084ZM55.8889 17.5411C55.8084 18.1076 56.2701 18.5884 56.8422 18.5884H65.2703C65.8226 18.5884 66.2774 18.1393 66.2193 17.5901C66.1387 16.8268 65.9623 16.1263 65.6903 15.4884C65.317 14.5684 64.7636 13.8484 64.0303 13.3284C63.297 12.8084 62.4036 12.5484 61.3503 12.5484C59.8703 12.5484 58.597 13.0284 57.5303 13.9884C56.6602 14.7814 56.1131 15.9657 55.8889 17.5411Z" fill="#3267A5"/>
<path d="M78.3937 30.4284C77.8415 30.4284 77.3937 29.9807 77.3937 29.4284V3.82263C77.3937 3.43547 77.6172 3.0831 77.9674 2.91805L79.4474 2.22058C80.1107 1.90799 80.8737 2.39191 80.8737 3.12516V29.4284C80.8737 29.9807 80.426 30.4284 79.8737 30.4284H78.3937Z" fill="#3267A5"/>
<path d="M97.4625 30.4284C96.9102 30.4284 96.4625 29.9807 96.4625 29.4284V6.74842C96.4625 6.19613 96.0148 5.74842 95.4625 5.74842H89.6625C89.1102 5.74842 88.6625 5.3007 88.6625 4.74842V3.42842C88.6625 2.87613 89.1102 2.42842 89.6625 2.42842H106.743C107.295 2.42842 107.743 2.87613 107.743 3.42842V4.74842C107.743 5.3007 107.295 5.74842 106.743 5.74842H100.943C100.39 5.74842 99.9425 6.19613 99.9425 6.74842V29.4284C99.9425 29.9807 99.4948 30.4284 98.9425 30.4284H97.4625Z" fill="#3267A5"/>
<path d="M119.669 30.9084C117.802 30.9084 116.189 30.4484 114.829 29.5284C113.469 28.6084 112.422 27.3417 111.689 25.7284C110.956 24.1151 110.589 22.2684 110.589 20.1884C110.589 17.9351 110.969 16.0151 111.729 14.4284C112.489 12.8284 113.549 11.6084 114.909 10.7684C116.269 9.92842 117.856 9.50842 119.669 9.50842C121.202 9.50842 122.609 9.85508 123.889 10.5484C125.169 11.2284 126.189 12.2884 126.949 13.7284C127.722 15.1551 128.109 16.9884 128.109 19.2284C128.109 19.5484 128.096 19.9218 128.069 20.3484C128.065 20.4703 128.06 20.5933 128.054 20.7175C128.028 21.2341 127.593 21.6284 127.076 21.6284H115.262C114.668 21.6284 114.199 22.146 114.321 22.7279C114.487 23.5217 114.737 24.2418 115.069 24.8884C115.549 25.8217 116.182 26.5551 116.969 27.0884C117.756 27.6084 118.682 27.8684 119.749 27.8684C120.616 27.8684 121.416 27.7151 122.149 27.4084C122.595 27.2251 123.023 26.9823 123.431 26.6799C123.892 26.3382 124.551 26.3484 124.934 26.7762L125.638 27.5634C125.992 27.959 125.979 28.5671 125.562 28.8964C124.946 29.3844 124.234 29.8084 123.429 30.1684C122.309 30.6618 121.056 30.9084 119.669 30.9084ZM114.208 17.5411C114.127 18.1076 114.589 18.5884 115.161 18.5884H123.589C124.141 18.5884 124.596 18.1393 124.538 17.5901C124.457 16.8268 124.281 16.1263 124.009 15.4884C123.636 14.5684 123.082 13.8484 122.349 13.3284C121.616 12.8084 120.722 12.5484 119.669 12.5484C118.189 12.5484 116.916 13.0284 115.849 13.9884C114.979 14.7814 114.432 15.9657 114.208 17.5411Z" fill="#3267A5"/>
<path d="M136.903 30.4284C136.351 30.4284 135.903 29.9807 135.903 29.4284V10.9884C135.903 10.4361 136.351 9.98842 136.903 9.98842H138.911C139.172 9.98842 139.383 10.2 139.383 10.461C139.383 10.9705 140.253 11.2095 140.619 10.8556C140.832 10.6505 141.06 10.4681 141.303 10.3084C142.13 9.77508 143.103 9.50842 144.223 9.50842C145.245 9.50842 146.14 9.74371 146.908 10.2143C147.214 10.402 147.348 10.7677 147.292 11.1227L147.104 12.3103C146.993 13.0123 146.168 13.3586 145.483 13.1684C145.016 13.0218 144.503 12.9484 143.943 12.9484C143.023 12.9484 142.223 13.1951 141.543 13.6884C140.863 14.1818 140.33 14.8751 139.943 15.7684C139.57 16.6617 139.383 17.7084 139.383 18.9084V29.4284C139.383 29.9807 138.935 30.4284 138.383 30.4284H136.903Z" fill="#3267A5"/>
<path d="M10.76 30.9084C9.13333 30.9084 7.66 30.6418 6.34 30.1084C5.02 29.5618 3.9 28.8217 2.98 27.8884C2.30837 27.1872 1.77209 26.4164 1.37117 25.5761C1.13654 25.0843 1.40973 24.5185 1.92144 24.3313L3.40746 23.7876C3.89938 23.6077 4.44024 23.8427 4.71348 24.2896C5.24602 25.1606 5.9482 25.8935 6.82 26.4884C7.96667 27.2484 9.30667 27.6284 10.84 27.6284C12.52 27.6284 13.86 27.2284 14.86 26.4284C15.86 25.6151 16.36 24.4417 16.36 22.9084C16.36 21.8284 16.06 20.9217 15.46 20.1884C14.86 19.4551 14.08 18.8417 13.12 18.3484C12.16 17.8417 11.1333 17.3884 10.04 16.9884C9.06667 16.6284 8.09333 16.2284 7.12 15.7884C6.14667 15.3484 5.26 14.8284 4.46 14.2284C3.67333 13.6151 3.04 12.8751 2.56 12.0084C2.08 11.1284 1.84 10.0818 1.84 8.86842C1.84 7.61508 2.18 6.46842 2.86 5.42842C3.50793 4.42477 1.99508 -1.47542 5.27657 2.27822C5.58765 2.63406 6.10064 2.75113 6.54281 2.58417C7.66527 2.16034 8.96434 1.94842 10.44 1.94842C11.6321 1.94842 12.7074 2.09115 13.6659 2.3766C14.0749 2.49839 14.5272 2.38216 14.8186 2.07041C17.7661 -1.08322 16.4345 3.66485 17.12 4.38842C17.6169 4.89438 18.0098 5.44932 18.2985 6.05323C18.5298 6.53686 18.2391 7.08371 17.7312 7.25513L16.3187 7.73186C15.8231 7.89913 15.2911 7.64547 14.9741 7.22938C14.6314 6.77962 14.1734 6.3793 13.6 6.02842C12.72 5.46842 11.5867 5.18842 10.2 5.18842C8.72 5.18842 7.55333 5.51508 6.7 6.16842C5.86 6.82175 5.44 7.72175 5.44 8.86842C5.44 9.73508 5.72 10.4618 6.28 11.0484C6.85333 11.6217 7.6 12.1217 8.52 12.5484C9.44 12.9751 10.4267 13.3884 11.48 13.7884C12.4667 14.1617 13.4533 14.5884 14.44 15.0684C15.44 15.5351 16.3533 16.1084 17.18 16.7884C18.02 17.4684 18.6933 18.3018 19.2 19.2884C19.7067 20.2617 19.96 21.4417 19.96 22.8284C19.96 24.5484 19.56 26.0084 18.76 27.2084C17.96 28.4084 16.8667 29.3284 15.48 29.9684C14.0933 30.5951 12.52 30.9084 10.76 30.9084Z" stroke="#3267A5" stroke-width="2" mask="url(#path-1-outside-1_715_202)"/>
<path d="M29.1453 30.4284C28.593 30.4284 28.1453 29.9807 28.1453 29.4284V3.78928C28.1453 3.3987 28.3727 3.04386 28.7276 2.88071L30.2076 2.20025C30.8701 1.89565 31.6253 2.37966 31.6253 3.10882V9.0989C31.6253 10.0436 33.0352 10.5806 33.8853 10.1684C34.7786 9.72842 35.7853 9.50842 36.9053 9.50842C38.6786 9.50842 40.0986 9.87508 41.1653 10.6084C42.2453 11.3418 43.0253 12.3951 43.5053 13.7684C43.9853 15.1284 44.2253 16.7618 44.2253 18.6684V29.4284C44.2253 29.9807 43.7776 30.4284 43.2253 30.4284H41.7453C41.193 30.4284 40.7453 29.9807 40.7453 29.4284V18.0684C40.7453 16.4684 40.3853 15.1751 39.6653 14.1884C38.9586 13.2017 37.852 12.7084 36.3453 12.7084C34.7853 12.7084 33.6053 13.1551 32.8053 14.0484C32.0186 14.9284 31.6253 16.2418 31.6253 17.9884V29.4284C31.6253 29.9807 31.1776 30.4284 30.6253 30.4284H29.1453Z" stroke="#3267A5" stroke-width="2" mask="url(#path-1-outside-1_715_202)"/>
<path d="M61.3503 30.9084C59.4837 30.9084 57.8703 30.4484 56.5103 29.5284C55.1503 28.6084 54.1036 27.3417 53.3703 25.7284C52.637 24.1151 52.2703 22.2684 52.2703 20.1884C52.2703 17.9351 52.6503 16.0151 53.4103 14.4284C54.1703 12.8284 55.2303 11.6084 56.5903 10.7684C57.9503 9.92842 59.537 9.50842 61.3503 9.50842C62.8836 9.50842 64.2903 9.85508 65.5703 10.5484C66.8503 11.2284 67.8703 12.2884 68.6303 13.7284C69.4036 15.1551 69.7903 16.9884 69.7903 19.2284C69.7903 19.5484 69.777 19.9218 69.7503 20.3484C69.7464 20.4703 69.7413 20.5933 69.735 20.7175C69.709 21.2341 69.2743 21.6284 68.7571 21.6284H56.9436C56.349 21.6284 55.8805 22.146 56.0023 22.7279C56.1684 23.5217 56.4178 24.2418 56.7503 24.8884C57.2303 25.8217 57.8636 26.5551 58.6503 27.0884C59.437 27.6084 60.3636 27.8684 61.4303 27.8684C62.297 27.8684 63.097 27.7151 63.8303 27.4084C64.2766 27.2251 64.7038 26.9823 65.112 26.6799C65.5733 26.3382 66.2324 26.3484 66.6152 26.7762L67.3195 27.5634C67.6734 27.959 67.6598 28.5671 67.2436 28.8964C66.6268 29.3844 65.9157 29.8084 65.1103 30.1684C63.9903 30.6618 62.737 30.9084 61.3503 30.9084ZM55.8889 17.5411C55.8084 18.1076 56.2701 18.5884 56.8422 18.5884H65.2703C65.8226 18.5884 66.2774 18.1393 66.2193 17.5901C66.1387 16.8268 65.9623 16.1263 65.6903 15.4884C65.317 14.5684 64.7636 13.8484 64.0303 13.3284C63.297 12.8084 62.4036 12.5484 61.3503 12.5484C59.8703 12.5484 58.597 13.0284 57.5303 13.9884C56.6602 14.7814 56.1131 15.9657 55.8889 17.5411Z" stroke="#3267A5" stroke-width="2" mask="url(#path-1-outside-1_715_202)"/>
<path d="M78.3937 30.4284C77.8415 30.4284 77.3937 29.9807 77.3937 29.4284V3.82263C77.3937 3.43547 77.6172 3.0831 77.9674 2.91805L79.4474 2.22058C80.1107 1.90799 80.8737 2.39191 80.8737 3.12516V29.4284C80.8737 29.9807 80.426 30.4284 79.8737 30.4284H78.3937Z" stroke="#3267A5" stroke-width="2" mask="url(#path-1-outside-1_715_202)"/>
<path d="M97.4625 30.4284C96.9102 30.4284 96.4625 29.9807 96.4625 29.4284V6.74842C96.4625 6.19613 96.0148 5.74842 95.4625 5.74842H89.6625C89.1102 5.74842 88.6625 5.3007 88.6625 4.74842V3.42842C88.6625 2.87613 89.1102 2.42842 89.6625 2.42842H106.743C107.295 2.42842 107.743 2.87613 107.743 3.42842V4.74842C107.743 5.3007 107.295 5.74842 106.743 5.74842H100.943C100.39 5.74842 99.9425 6.19613 99.9425 6.74842V29.4284C99.9425 29.9807 99.4948 30.4284 98.9425 30.4284H97.4625Z" stroke="#3267A5" stroke-width="2" mask="url(#path-1-outside-1_715_202)"/>
<path d="M119.669 30.9084C117.802 30.9084 116.189 30.4484 114.829 29.5284C113.469 28.6084 112.422 27.3417 111.689 25.7284C110.956 24.1151 110.589 22.2684 110.589 20.1884C110.589 17.9351 110.969 16.0151 111.729 14.4284C112.489 12.8284 113.549 11.6084 114.909 10.7684C116.269 9.92842 117.856 9.50842 119.669 9.50842C121.202 9.50842 122.609 9.85508 123.889 10.5484C125.169 11.2284 126.189 12.2884 126.949 13.7284C127.722 15.1551 128.109 16.9884 128.109 19.2284C128.109 19.5484 128.096 19.9218 128.069 20.3484C128.065 20.4703 128.06 20.5933 128.054 20.7175C128.028 21.2341 127.593 21.6284 127.076 21.6284H115.262C114.668 21.6284 114.199 22.146 114.321 22.7279C114.487 23.5217 114.737 24.2418 115.069 24.8884C115.549 25.8217 116.182 26.5551 116.969 27.0884C117.756 27.6084 118.682 27.8684 119.749 27.8684C120.616 27.8684 121.416 27.7151 122.149 27.4084C122.595 27.2251 123.023 26.9823 123.431 26.6799C123.892 26.3382 124.551 26.3484 124.934 26.7762L125.638 27.5634C125.992 27.959 125.979 28.5671 125.562 28.8964C124.946 29.3844 124.234 29.8084 123.429 30.1684C122.309 30.6618 121.056 30.9084 119.669 30.9084ZM114.208 17.5411C114.127 18.1076 114.589 18.5884 115.161 18.5884H123.589C124.141 18.5884 124.596 18.1393 124.538 17.5901C124.457 16.8268 124.281 16.1263 124.009 15.4884C123.636 14.5684 123.082 13.8484 122.349 13.3284C121.616 12.8084 120.722 12.5484 119.669 12.5484C118.189 12.5484 116.916 13.0284 115.849 13.9884C114.979 14.7814 114.432 15.9657 114.208 17.5411Z" stroke="#3267A5" stroke-width="2" mask="url(#path-1-outside-1_715_202)"/>
<path d="M136.903 30.4284C136.351 30.4284 135.903 29.9807 135.903 29.4284V10.9884C135.903 10.4361 136.351 9.98842 136.903 9.98842H138.911C139.172 9.98842 139.383 10.2 139.383 10.461C139.383 10.9705 140.253 11.2095 140.619 10.8556C140.832 10.6505 141.06 10.4681 141.303 10.3084C142.13 9.77508 143.103 9.50842 144.223 9.50842C145.245 9.50842 146.14 9.74371 146.908 10.2143C147.214 10.402 147.348 10.7677 147.292 11.1227L147.104 12.3103C146.993 13.0123 146.168 13.3586 145.483 13.1684C145.016 13.0218 144.503 12.9484 143.943 12.9484C143.023 12.9484 142.223 13.1951 141.543 13.6884C140.863 14.1818 140.33 14.8751 139.943 15.7684C139.57 16.6617 139.383 17.7084 139.383 18.9084V29.4284C139.383 29.9807 138.935 30.4284 138.383 30.4284H136.903Z" stroke="#3267A5" stroke-width="2" mask="url(#path-1-outside-1_715_202)"/>
</svg>
